<mxfile host="Electron" agent="Mozilla/5.0 (Windows NT 10.0; Win64; x64) AppleWebKit/537.36 (KHTML, like Gecko) draw.io/25.0.2 Chrome/128.0.6613.186 Electron/32.2.5 Safari/537.36" version="25.0.2">
  <diagram name="Page-1" id="X6U52luH2ryi6jcxI2d2">
    <mxGraphModel dx="764" dy="464" grid="1" gridSize="10" guides="1" tooltips="1" connect="1" arrows="1" fold="1" page="1" pageScale="1" pageWidth="850" pageHeight="1100" math="0" shadow="0">
      <root>
        <mxCell id="0" />
        <mxCell id="1" parent="0" />
        <mxCell id="XWmum2CBMNlat4GcM_Pf-296" value="" style="rounded=1;whiteSpace=wrap;html=1;fillColor=#CFCFCF;" vertex="1" parent="1">
          <mxGeometry x="79" y="240" width="120" height="120" as="geometry" />
        </mxCell>
        <mxCell id="XWmum2CBMNlat4GcM_Pf-297" value="&lt;font style=&quot;font-size: 50px;&quot; face=&quot;CMU Sans Serif&quot;&gt;&lt;span style=&quot;font-size: 50px;&quot;&gt;M&lt;/span&gt;&lt;/font&gt;" style="text;strokeColor=none;align=center;fillColor=none;html=1;verticalAlign=middle;whiteSpace=wrap;rounded=0;strokeWidth=2;fontSize=50;fontColor=#595656;fontFamily=Verdana;fontStyle=1" vertex="1" parent="1">
          <mxGeometry x="106.5" y="247.5" width="65" height="60" as="geometry" />
        </mxCell>
        <mxCell id="XWmum2CBMNlat4GcM_Pf-298" value="" style="group" vertex="1" connectable="0" parent="1">
          <mxGeometry x="159" y="400" width="60" height="60" as="geometry" />
        </mxCell>
        <mxCell id="XWmum2CBMNlat4GcM_Pf-299" value="" style="rounded=1;whiteSpace=wrap;html=1;fillColor=#CFCFCF;" vertex="1" parent="XWmum2CBMNlat4GcM_Pf-298">
          <mxGeometry width="60" height="60" as="geometry" />
        </mxCell>
        <mxCell id="XWmum2CBMNlat4GcM_Pf-300" value="&lt;font face=&quot;CMU Sans Serif&quot; color=&quot;#0066cc&quot;&gt;&lt;b&gt;D&lt;/b&gt;&lt;/font&gt;" style="text;strokeColor=none;align=center;fillColor=none;html=1;verticalAlign=middle;whiteSpace=wrap;rounded=0;strokeWidth=2;fontSize=50;fontColor=#CC0000;fontFamily=Verdana;" vertex="1" parent="XWmum2CBMNlat4GcM_Pf-298">
          <mxGeometry width="60" height="60" as="geometry" />
        </mxCell>
        <mxCell id="XWmum2CBMNlat4GcM_Pf-301" value="&lt;b style=&quot;font-size: 15px;&quot;&gt;&lt;font face=&quot;CMU Sans Serif&quot;&gt;Client 1&lt;/font&gt;&lt;/b&gt;" style="text;html=1;align=center;verticalAlign=middle;resizable=0;points=[];autosize=1;strokeColor=none;fillColor=none;fontSize=15;" vertex="1" parent="1">
          <mxGeometry x="49" y="460" width="80" height="30" as="geometry" />
        </mxCell>
        <mxCell id="XWmum2CBMNlat4GcM_Pf-302" value="&lt;b style=&quot;font-size: 15px;&quot;&gt;&lt;font face=&quot;CMU Sans Serif&quot;&gt;Client N&lt;/font&gt;&lt;/b&gt;" style="text;html=1;align=center;verticalAlign=middle;resizable=0;points=[];autosize=1;strokeColor=none;fillColor=none;fontSize=15;" vertex="1" parent="1">
          <mxGeometry x="149" y="460" width="80" height="30" as="geometry" />
        </mxCell>
        <mxCell id="XWmum2CBMNlat4GcM_Pf-303" value="&lt;span style=&quot;font-size: 25px;&quot;&gt;&lt;b style=&quot;font-size: 25px;&quot;&gt;&lt;font face=&quot;CMU Sans Serif&quot;&gt;...&lt;/font&gt;&lt;/b&gt;&lt;/span&gt;" style="text;html=1;align=center;verticalAlign=middle;resizable=0;points=[];autosize=1;strokeColor=none;fillColor=none;fontSize=25;" vertex="1" parent="1">
          <mxGeometry x="114" y="405" width="50" height="50" as="geometry" />
        </mxCell>
        <mxCell id="XWmum2CBMNlat4GcM_Pf-304" value="&lt;b style=&quot;font-size: 15px;&quot;&gt;&lt;font face=&quot;CMU Sans Serif&quot;&gt;Server&lt;/font&gt;&lt;/b&gt;" style="text;html=1;align=center;verticalAlign=middle;resizable=0;points=[];autosize=1;strokeColor=none;fillColor=none;fontSize=15;" vertex="1" parent="1">
          <mxGeometry x="104" y="210" width="70" height="30" as="geometry" />
        </mxCell>
        <mxCell id="XWmum2CBMNlat4GcM_Pf-342" value="" style="group" vertex="1" connectable="0" parent="1">
          <mxGeometry x="60" y="400" width="60" height="60" as="geometry" />
        </mxCell>
        <mxCell id="XWmum2CBMNlat4GcM_Pf-343" value="" style="rounded=1;whiteSpace=wrap;html=1;fillColor=#CFCFCF;" vertex="1" parent="XWmum2CBMNlat4GcM_Pf-342">
          <mxGeometry width="60" height="60" as="geometry" />
        </mxCell>
        <mxCell id="XWmum2CBMNlat4GcM_Pf-344" value="&lt;font color=&quot;#ff0000&quot; face=&quot;CMU Sans Serif&quot;&gt;&lt;b style=&quot;&quot;&gt;D&lt;/b&gt;&lt;/font&gt;" style="text;strokeColor=none;align=center;fillColor=none;html=1;verticalAlign=middle;whiteSpace=wrap;rounded=0;strokeWidth=2;fontSize=50;fontColor=#CC0000;fontFamily=Verdana;" vertex="1" parent="XWmum2CBMNlat4GcM_Pf-342">
          <mxGeometry width="60" height="60" as="geometry" />
        </mxCell>
      </root>
    </mxGraphModel>
  </diagram>
</mxfile>
